<?xml version="1.0" encoding="utf-8"?>
<!-- Generator: Adobe Illustrator 28.0.0, SVG Export Plug-In . SVG Version: 6.00 Build 0)  -->
<svg version="1.1" id="Layer_1" xmlns="http://www.w3.org/2000/svg" xmlns:xlink="http://www.w3.org/1999/xlink" x="0px" y="0px"
	 viewBox="0 0 200 84.07" style="enable-background:new 0 0 200 84.07;" xml:space="preserve">
<style type="text/css">
	.st0{fill:#FF004C;}
	.st1{opacity:0.5;fill:#FF004C;}
	.st2{fill:#FFFFFF;}
	.st3{font-family:'ConthraxSb-Regular';}
	.st4{font-size:16.4276px;}
	.st5{fill:#0B133D;}
	.st6{font-family:'Poppins-ExtraLight';}
	.st7{font-size:11.9874px;}
</style>
<g>
	<g>
		<path class="st0" d="M40.27,24.62c0.82,0,1.26,0.38,1.26,1.2v5.2c0,0.82-0.44,1.21-1.26,1.21H16.5c-5.64,0-7.29,1.7-7.29,7.45v1.1
			H40c0.82,0,1.21,0.38,1.21,1.21v4.33c0,0.82-0.38,1.21-1.21,1.21H9.21v14.24c0,0.82-0.38,1.21-1.21,1.21H2.09
			c-0.82,0-1.26-0.38-1.26-1.21V39.08c0-10.52,4.27-14.46,15.34-14.46H40.27z"/>
		<path class="st0" d="M125.08,32.89c9.86,0,13.04,3.18,13.04,11.12v17.75c0,0.82-0.38,1.21-1.21,1.21h-5.37
			c-0.82,0-1.21-0.38-1.21-1.21V45.88c0-4.6-0.93-6.03-5.64-6.03h-14.57c-4.71,0-5.97,1.43-5.97,6.03v15.89
			c0,0.82-0.38,1.21-1.21,1.21h-5.37c-0.82,0-1.26-0.38-1.26-1.21V44.01c0-7.94,3.18-11.12,13.04-11.12H125.08z"/>
		<path class="st0" d="M152.78,22.31c-0.24,0.37-0.4,0.89-0.06,1.48c-0.74-0.21-1.58-0.54-2.5-1.05c-2.15-1.19-3.57-1.48-5.27-1.58
			v-2.71c0-1.04,0.43-1.53,1.25-1.53h5.37c0.83,0,1.21,0.49,1.21,1.53V22.31z"/>
		<path class="st0" d="M152.75,39.1v22.03c0,0.83-0.38,1.21-1.21,1.21h-5.37c-0.82,0-1.2-0.38-1.2-1.21V38.87
			c0.53,0.46,1.47,0.93,3.13,1.09C150.62,40.22,152.13,39.49,152.75,39.1z"/>
		<path class="st0" d="M168.17,49.94c0.51,2.01,1.43,3.97,3.06,5.83l-6.46,5.56c-0.37,0.31-0.84,0.49-1.32,0.49h-8.14
			c-0.41,0-0.59-0.51-0.29-0.77L168.17,49.94z"/>
		<path class="st0" d="M198.27,32.51l-13.94,12c-0.46-1.07-0.87-2.15-1.27-3.21c-0.38-1-0.76-1.99-1.17-2.95l7.25-6.13
			c0.37-0.31,0.83-0.48,1.3-0.48h7.54C198.4,31.75,198.59,32.24,198.27,32.51z"/>
		<g>
			<path class="st0" d="M172.32,22.27c2.31-2.35,2.86-5,2.19-7.09c-0.08-0.24-0.17-0.48-0.29-0.71c-0.13-0.26-0.28-0.52-0.46-0.76
				c0-0.01-0.01-0.01-0.01-0.02c-0.56,2.79-3.68,5.1-3.68,5.1c2.49-3.7,3.01-6.35,2.65-8.25c-0.02-0.11-0.04-0.21-0.07-0.32
				c-0.07-0.34-0.19-0.66-0.33-0.94c-0.04-0.1-0.1-0.19-0.14-0.28c-0.06-0.13-0.13-0.24-0.21-0.35c-0.06-0.1-0.13-0.2-0.19-0.29
				c-0.06-0.1-0.14-0.19-0.21-0.28c-0.06-0.08-0.14-0.17-0.21-0.24l-0.22-0.22c-0.06-0.07-0.14-0.14-0.2-0.19
				c-0.14-0.13-0.28-0.24-0.41-0.35l-0.01-0.01c0.04,3.13-2.32,5.85-2.32,5.85c3.15-7.22-0.78-11.59-4.72-12.51
				c2.34,2.81,1.95,4.5,0.81,8.05c-0.98,3.03-1.9,4.48-1.12,7.98c0.74,3.42-1.34,4.54-1.34,4.54s1.01,1.01,2.95-0.88
				c-3.37,4.47-4.58-1.36-6.98-1.27c0.6-0.57,0.34-1.57-0.17-2.05c-0.29,1.23-1.59,1.62-2.49,2.3c-0.71,0.54-1.22,1.2-0.95,2.62
				c-1.39,1.11-0.55,2.16-0.55,2.16c0.93-1.91,2.79-1.81,3.57-0.66c0.01,0.02,0.03,0.04,0.04,0.06l0.39,0.79
				c0.1,0.28,0.15,0.55,0.15,0.82c0,0.28-0.06,0.55-0.18,0.82c-0.28,0.59-1.9,1.74-4.85,0.9c-0.76-0.21-1.62-0.55-2.56-1.07
				c-2.15-1.19-3.57-1.48-5.27-1.58c-0.77-0.05-1.62-0.05-2.62-0.1c-3.73-0.15-5.46-0.36-7.29-3.51c-0.5,4,2.27,9.19,10.13,8.71
				c0,0-3.37,1.28-6.28,0.17c0.55,1.77,2,4.1,6.24,4.23c1.29,0.04,2.85-0.12,4.73-0.57c0.04-0.01,0.11-0.03,0.16-0.03
				c0,0.01-0.02,0.01-0.04,0.03c-0.4,0.25-2.68,1.62-4.97,1.71c-0.34,0.01-0.68,0-1.02-0.05c0,0,0,0.01,0.01,0.01
				c0.12,0.18,0.25,0.35,0.4,0.52c0.11,0.13,0.23,0.25,0.36,0.37c0.07,0.07,0.16,0.15,0.24,0.21c0.13,0.11,0.25,0.2,0.39,0.3
				c0.14,0.11,0.28,0.19,0.42,0.26c0.15,0.08,0.3,0.16,0.46,0.23c0.07,0.04,0.16,0.07,0.24,0.11c0.94,0.38,2.05,0.54,3.24,0.39
				c0.15-0.01,0.3-0.03,0.45-0.06c0.15-0.02,0.31-0.05,0.46-0.1c0.15-0.03,0.31-0.07,0.46-0.12c0.47-0.14,0.94-0.32,1.43-0.54
				c0.2-0.1,0.41-0.19,0.64-0.3c0.36-0.18,0.74-0.35,1.13-0.53c0.32-0.15,0.65-0.3,0.98-0.42c0.33-0.15,0.67-0.29,1.02-0.4
				c0.13-0.05,0.25-0.11,0.38-0.14c0.22-0.08,0.43-0.16,0.66-0.22c0.17-0.06,0.35-0.11,0.52-0.15c0.59-0.16,1.19-0.29,1.76-0.34
				c0.3-0.04,0.57-0.05,0.86-0.05c0.51,0,1.01,0.05,1.48,0.17c2.56,0.64,4.62,3.43,5.1,7.31c1.99-3.6,0.04-7.09,0.67-11.34
				C168.19,26.43,171.04,23.57,172.32,22.27z M155.18,21.14c0-0.49,0.38-0.88,0.87-0.88C156.04,20.75,155.65,21.14,155.18,21.14z"/>
			<path class="st0" d="M164.29,8.48c-0.98,3.04-1.89,4.48-1.13,7.98c0.75,3.41-1.33,4.54-1.33,4.54s1.01,1,2.94-0.89
				c1.65-2.14,0.92-3.73,0.65-6.47c-0.16-1.6,0.1-2.8,0.76-4.74c1.5-4.35-0.58-7.05-2.7-8.47C165.82,3.23,165.43,4.92,164.29,8.48z"
				/>
			<path class="st0" d="M154.02,29.07c-0.49-0.04-0.98-0.12-1.45-0.23c-2.31-0.51-4.45-1.67-5.75-2.3c-0.64-0.31-1.24-0.49-1.9-0.58
				c-0.83-0.13-1.73-0.14-2.87-0.16c-4.61-0.08-6.42-2.97-7.04-5.44c1.83,3.15,3.56,3.36,7.29,3.51c1,0.04,1.84,0.04,2.62,0.1
				c1.7,0.1,3.12,0.39,5.27,1.58c0.94,0.52,1.8,0.86,2.56,1.07c2.96,0.84,4.58-0.31,4.85-0.9c0.12-0.26,0.18-0.54,0.18-0.82
				c0-0.26-0.05-0.54-0.15-0.82c-0.08-0.26-0.22-0.53-0.39-0.79C159.22,25.78,157.21,29.33,154.02,29.07z"/>
			<path class="st0" d="M169.77,22.07c-8.79,7.37-0.42,13.86-2.74,18.99c1.99-3.61,0.04-7.09,0.67-11.35
				c0.49-3.3,3.34-6.15,4.62-7.44c2.92-2.96,3.03-6.4,1.44-8.59C173.76,13.69,175.23,17.49,169.77,22.07z"/>
			<path class="st0" d="M153.31,34.15c-6.21,3.06-9.36,0.4-9.36,0.4c1.52,2.24,4.8,3.36,8.56,1.59c2.58-1.21,6.35-3.13,9.42-2.38
				c2.56,0.63,4.63,3.43,5.1,7.31C166.99,35.74,163.86,28.94,153.31,34.15z"/>
			<path class="st0" d="M169.6,15.56c-3.55,4.6-1.71,4.92,0.49,3.23c4.69-6.96,2.37-10.22,0.43-11.71
				C170.52,7.08,173.49,10.52,169.6,15.56z"/>
			<path class="st0" d="M150,32.85c-0.06,0.01-0.13,0.03-0.18,0.04c-1.88,0.46-3.43,0.61-4.73,0.57c-4.24-0.13-5.69-2.46-6.24-4.23
				c0,0,2.22,3.96,8.28,2.03C152.67,29.51,152.34,31.36,150,32.85z"/>
		</g>
		<g>
			<path class="st0" d="M175.35,32.52c1.64,2.76,2.26,5.86,2.99,8.88c0.87,3.55,1.59,8.01,4.72,12c3.4,4.34,8.96,8.01,16.11,7.61
				c-8.57-2.67-13-7.8-15.7-13.26C180.52,41.79,179.55,35.47,175.35,32.52z"/>
			<path class="st0" d="M169.12,28.99c-0.01,1.3,0.11,2.57,0.23,3.82c0.55,3.89,0.34,7.37,0.31,10.53
				c-0.04,6.14,0.63,11.05,9.06,15.37c0,0-4.85-4.94-4.68-10.21c1.07,4.32,5.72,11.03,14.19,12.33
				C171.83,49.71,180.48,35.83,169.12,28.99z"/>
			<path class="st0" d="M169.67,43.33c-0.04,6.14,0.63,11.05,9.06,15.37c0,0-4.85-4.94-4.68-10.21c-1.8-7.85-0.79-15.21-4.93-19.51
				c-0.01,1.3,0.11,2.57,0.23,3.82C169.91,36.7,169.69,40.18,169.67,43.33z"/>
			<path class="st1" d="M169.12,28.99c0,0.65,0.06,1.77,0.1,2.41c2.82,3.19,2.42,11.28,4.83,17.1
				C172.26,40.64,173.27,33.28,169.12,28.99z"/>
		</g>
		<g>
			<path class="st0" d="M78.96,32.54c7.68,0,9.7,2.41,9.7,9.2v5.33c0,2.41-1.01,3.2-3.2,3.2H57.15v1.35c0,3.53,1.29,4.99,6.17,4.99
				H86.7c0.67,0,1.01,0.34,1.01,1.01v4.71c0,0.67-0.34,1.01-1.01,1.01H62.53c-10.09,0-13.35-3.2-13.35-11.33v-8.07
				c0-8.13,3.25-11.38,13.35-11.38H78.96z M57.15,45.27h22.71c0.67,0,0.95-0.22,0.95-0.95v-2.36c0-2.3-0.84-3.2-3.42-3.2H63.32
				c-4.88,0-6.17,1.4-6.17,4.99V45.27z"/>
		</g>
	</g>
	<path class="st2" d="M84.04,84.07h115.13V67.99H74.4l8.2,15.23C82.89,83.74,83.44,84.07,84.04,84.07z"/>
	<path class="st2" d="M81.69,84.07l-8.45-15.65c-0.23-0.42-0.67-0.69-1.15-0.69H1.05v16.34H81.69z"/>
	<text transform="matrix(1 0 0 1 4.8433 82.1819)" class="st0 st3 st4">Coder</text>
	<text transform="matrix(1 0 0 1 87.8672 79.5711)" class="st5 st6 st7">Igniting Innovation</text>
</g>
</svg>
